<svg aria-hidden="true" style="position: absolute; width: 0; height: 0; overflow: hidden;" version="1.1" xmlns="http://www.w3.org/2000/svg" xmlns:xlink="http://www.w3.org/1999/xlink">
<defs>
<symbol id="icon-wifi-solid" viewBox="0 0 40 32">
<path d="M3.388 12.681c4.313-4.138 10.163-6.681 16.613-6.681s12.3 2.544 16.612 6.681c0.8 0.762 2.063 0.738 2.825-0.056s0.737-2.063-0.056-2.825c-5.025-4.831-11.856-7.8-19.381-7.8s-14.356 2.969-19.387 7.794c-0.794 0.769-0.819 2.031-0.056 2.831s2.031 0.825 2.825 0.056zM20 16c3.55 0 6.788 1.319 9.262 3.5 0.831 0.731 2.094 0.65 2.825-0.175s0.65-2.094-0.175-2.825c-3.175-2.8-7.35-4.5-11.912-4.5s-8.738 1.7-11.906 4.5c-0.831 0.731-0.906 1.994-0.175 2.825s1.994 0.906 2.825 0.175c2.469-2.181 5.706-3.5 9.263-3.5zM24 26c0-2.209-1.791-4-4-4s-4 1.791-4 4v0c0 2.209 1.791 4 4 4s4-1.791 4-4v0z"></path>
</symbol>
</defs>
</svg>
